<mxfile host="app.diagrams.net" agent="Mozilla/5.0 (Windows NT 10.0; Win64; x64) AppleWebKit/537.36 (KHTML, like Gecko) Chrome/134.0.0.0 Safari/537.36" version="26.1.1">
  <diagram name="Page-1" id="9E7J-d7g6EkrMtDET_1V">
    <mxGraphModel dx="1590" dy="930" grid="1" gridSize="10" guides="1" tooltips="1" connect="1" arrows="1" fold="1" page="1" pageScale="1" pageWidth="1100" pageHeight="1700" math="0" shadow="0">
      <root>
        <mxCell id="0" />
        <mxCell id="1" parent="0" />
        <mxCell id="GVKvwJbg8GZK7_mUYSOx-1" value="Initialize System" style="rounded=0;whiteSpace=wrap;html=1;" vertex="1" parent="1">
          <mxGeometry x="320" y="30" width="160" height="20" as="geometry" />
        </mxCell>
        <mxCell id="GVKvwJbg8GZK7_mUYSOx-2" value="Configure RTOS" style="rounded=0;whiteSpace=wrap;html=1;" vertex="1" parent="1">
          <mxGeometry x="320" y="80" width="160" height="20" as="geometry" />
        </mxCell>
        <mxCell id="GVKvwJbg8GZK7_mUYSOx-3" value="Initialize MCU Peripherals" style="rounded=0;whiteSpace=wrap;html=1;" vertex="1" parent="1">
          <mxGeometry x="320" y="130" width="160" height="20" as="geometry" />
        </mxCell>
        <mxCell id="GVKvwJbg8GZK7_mUYSOx-4" value="Start Other Tasks" style="rounded=0;whiteSpace=wrap;html=1;" vertex="1" parent="1">
          <mxGeometry x="320" y="180" width="160" height="20" as="geometry" />
        </mxCell>
        <mxCell id="GVKvwJbg8GZK7_mUYSOx-5" value="Enter Main Loop" style="rounded=0;whiteSpace=wrap;html=1;" vertex="1" parent="1">
          <mxGeometry x="320" y="230" width="160" height="20" as="geometry" />
        </mxCell>
        <mxCell id="GVKvwJbg8GZK7_mUYSOx-6" value="Process Sensor Data" style="rounded=0;whiteSpace=wrap;html=1;" vertex="1" parent="1">
          <mxGeometry x="320" y="280" width="160" height="20" as="geometry" />
        </mxCell>
        <mxCell id="GVKvwJbg8GZK7_mUYSOx-7" value="Obstacle within 10cm" style="rhombus;whiteSpace=wrap;html=1;" vertex="1" parent="1">
          <mxGeometry x="342.5" y="330" width="115" height="90" as="geometry" />
        </mxCell>
        <mxCell id="GVKvwJbg8GZK7_mUYSOx-8" value="Execute Avoidance Algorithm" style="rounded=0;whiteSpace=wrap;html=1;" vertex="1" parent="1">
          <mxGeometry x="220" y="430" width="160" height="20" as="geometry" />
        </mxCell>
        <mxCell id="GVKvwJbg8GZK7_mUYSOx-9" value="Normal Movement Processing" style="rounded=0;whiteSpace=wrap;html=1;" vertex="1" parent="1">
          <mxGeometry x="425" y="430" width="170" height="20" as="geometry" />
        </mxCell>
        <mxCell id="GVKvwJbg8GZK7_mUYSOx-10" value="Update Motor Commands" style="rounded=0;whiteSpace=wrap;html=1;" vertex="1" parent="1">
          <mxGeometry x="320" y="500" width="160" height="20" as="geometry" />
        </mxCell>
        <mxCell id="GVKvwJbg8GZK7_mUYSOx-11" value="" style="endArrow=classic;html=1;rounded=0;exitX=0;exitY=0.5;exitDx=0;exitDy=0;entryX=0.5;entryY=0;entryDx=0;entryDy=0;" edge="1" parent="1" source="GVKvwJbg8GZK7_mUYSOx-7" target="GVKvwJbg8GZK7_mUYSOx-8">
          <mxGeometry width="50" height="50" relative="1" as="geometry">
            <mxPoint x="350" y="480" as="sourcePoint" />
            <mxPoint x="400" y="430" as="targetPoint" />
            <Array as="points">
              <mxPoint x="300" y="375" />
            </Array>
          </mxGeometry>
        </mxCell>
        <mxCell id="GVKvwJbg8GZK7_mUYSOx-12" value="" style="endArrow=classic;html=1;rounded=0;exitX=1;exitY=0.5;exitDx=0;exitDy=0;entryX=0.5;entryY=0;entryDx=0;entryDy=0;" edge="1" parent="1" source="GVKvwJbg8GZK7_mUYSOx-7" target="GVKvwJbg8GZK7_mUYSOx-9">
          <mxGeometry width="50" height="50" relative="1" as="geometry">
            <mxPoint x="353" y="385" as="sourcePoint" />
            <mxPoint x="310" y="440" as="targetPoint" />
            <Array as="points">
              <mxPoint x="510" y="375" />
            </Array>
          </mxGeometry>
        </mxCell>
        <mxCell id="GVKvwJbg8GZK7_mUYSOx-14" value="" style="endArrow=none;html=1;rounded=0;exitX=0.5;exitY=1;exitDx=0;exitDy=0;" edge="1" parent="1" source="GVKvwJbg8GZK7_mUYSOx-8">
          <mxGeometry width="50" height="50" relative="1" as="geometry">
            <mxPoint x="350" y="480" as="sourcePoint" />
            <mxPoint x="300" y="480" as="targetPoint" />
          </mxGeometry>
        </mxCell>
        <mxCell id="GVKvwJbg8GZK7_mUYSOx-15" value="" style="endArrow=none;html=1;rounded=0;exitX=0.5;exitY=1;exitDx=0;exitDy=0;" edge="1" parent="1" source="GVKvwJbg8GZK7_mUYSOx-9">
          <mxGeometry width="50" height="50" relative="1" as="geometry">
            <mxPoint x="310" y="460" as="sourcePoint" />
            <mxPoint x="510" y="480" as="targetPoint" />
          </mxGeometry>
        </mxCell>
        <mxCell id="GVKvwJbg8GZK7_mUYSOx-16" value="" style="endArrow=none;html=1;rounded=0;" edge="1" parent="1">
          <mxGeometry width="50" height="50" relative="1" as="geometry">
            <mxPoint x="300" y="480" as="sourcePoint" />
            <mxPoint x="510" y="480" as="targetPoint" />
          </mxGeometry>
        </mxCell>
        <mxCell id="GVKvwJbg8GZK7_mUYSOx-17" value="" style="endArrow=classic;html=1;rounded=0;entryX=0.5;entryY=0;entryDx=0;entryDy=0;" edge="1" parent="1" target="GVKvwJbg8GZK7_mUYSOx-10">
          <mxGeometry width="50" height="50" relative="1" as="geometry">
            <mxPoint x="400" y="480" as="sourcePoint" />
            <mxPoint x="400" y="430" as="targetPoint" />
          </mxGeometry>
        </mxCell>
        <mxCell id="GVKvwJbg8GZK7_mUYSOx-18" value="Yes" style="text;html=1;align=center;verticalAlign=middle;whiteSpace=wrap;rounded=0;" vertex="1" parent="1">
          <mxGeometry x="290" y="350" width="60" height="30" as="geometry" />
        </mxCell>
        <mxCell id="GVKvwJbg8GZK7_mUYSOx-19" value="No" style="text;html=1;align=center;verticalAlign=middle;whiteSpace=wrap;rounded=0;" vertex="1" parent="1">
          <mxGeometry x="457.5" y="350" width="60" height="30" as="geometry" />
        </mxCell>
        <mxCell id="GVKvwJbg8GZK7_mUYSOx-20" value="Env Parameters&amp;nbsp;&lt;div&gt;Exceed Thresholds&lt;div&gt;(humidity &amp;lt; 30% or &amp;gt; 70%,&lt;/div&gt;&lt;div&gt;&amp;nbsp;Temperature &amp;gt; 35Â°C,&lt;/div&gt;&lt;div&gt;&amp;nbsp;VOC &amp;gt; 600 ppb)&lt;/div&gt;&lt;/div&gt;" style="rhombus;whiteSpace=wrap;html=1;" vertex="1" parent="1">
          <mxGeometry x="286.25" y="550" width="227.5" height="140" as="geometry" />
        </mxCell>
        <mxCell id="GVKvwJbg8GZK7_mUYSOx-21" value="Generate Alert" style="rounded=0;whiteSpace=wrap;html=1;" vertex="1" parent="1">
          <mxGeometry x="170" y="690" width="160" height="20" as="geometry" />
        </mxCell>
        <mxCell id="GVKvwJbg8GZK7_mUYSOx-22" value="Normal Environment" style="rounded=0;whiteSpace=wrap;html=1;" vertex="1" parent="1">
          <mxGeometry x="480" y="690" width="170" height="20" as="geometry" />
        </mxCell>
        <mxCell id="GVKvwJbg8GZK7_mUYSOx-26" value="" style="endArrow=none;html=1;rounded=0;" edge="1" parent="1">
          <mxGeometry width="50" height="50" relative="1" as="geometry">
            <mxPoint x="240" y="710" as="sourcePoint" />
            <mxPoint x="240" y="729" as="targetPoint" />
          </mxGeometry>
        </mxCell>
        <mxCell id="GVKvwJbg8GZK7_mUYSOx-28" value="" style="endArrow=none;html=1;rounded=0;" edge="1" parent="1">
          <mxGeometry width="50" height="50" relative="1" as="geometry">
            <mxPoint x="240" y="790" as="sourcePoint" />
            <mxPoint x="565" y="790" as="targetPoint" />
          </mxGeometry>
        </mxCell>
        <mxCell id="GVKvwJbg8GZK7_mUYSOx-29" value="" style="endArrow=classic;html=1;rounded=0;entryX=0.5;entryY=0;entryDx=0;entryDy=0;" edge="1" parent="1">
          <mxGeometry width="50" height="50" relative="1" as="geometry">
            <mxPoint x="400" y="790" as="sourcePoint" />
            <mxPoint x="400" y="810" as="targetPoint" />
          </mxGeometry>
        </mxCell>
        <mxCell id="GVKvwJbg8GZK7_mUYSOx-30" value="Yes" style="text;html=1;align=center;verticalAlign=middle;whiteSpace=wrap;rounded=0;" vertex="1" parent="1">
          <mxGeometry x="240" y="590" width="60" height="30" as="geometry" />
        </mxCell>
        <mxCell id="GVKvwJbg8GZK7_mUYSOx-31" value="No" style="text;html=1;align=center;verticalAlign=middle;whiteSpace=wrap;rounded=0;" vertex="1" parent="1">
          <mxGeometry x="530" y="590" width="60" height="30" as="geometry" />
        </mxCell>
        <mxCell id="GVKvwJbg8GZK7_mUYSOx-33" value="" style="endArrow=classic;html=1;rounded=0;exitX=0;exitY=0.5;exitDx=0;exitDy=0;entryX=0.434;entryY=0.025;entryDx=0;entryDy=0;entryPerimeter=0;" edge="1" parent="1" source="GVKvwJbg8GZK7_mUYSOx-20" target="GVKvwJbg8GZK7_mUYSOx-21">
          <mxGeometry width="50" height="50" relative="1" as="geometry">
            <mxPoint x="350" y="680" as="sourcePoint" />
            <mxPoint x="400" y="630" as="targetPoint" />
            <Array as="points">
              <mxPoint x="240" y="620" />
            </Array>
          </mxGeometry>
        </mxCell>
        <mxCell id="GVKvwJbg8GZK7_mUYSOx-34" value="" style="endArrow=classic;html=1;rounded=0;entryX=0.5;entryY=0;entryDx=0;entryDy=0;exitX=1;exitY=0.5;exitDx=0;exitDy=0;" edge="1" parent="1" source="GVKvwJbg8GZK7_mUYSOx-20" target="GVKvwJbg8GZK7_mUYSOx-22">
          <mxGeometry width="50" height="50" relative="1" as="geometry">
            <mxPoint x="350" y="740" as="sourcePoint" />
            <mxPoint x="400" y="690" as="targetPoint" />
            <Array as="points">
              <mxPoint x="565" y="620" />
            </Array>
          </mxGeometry>
        </mxCell>
        <mxCell id="GVKvwJbg8GZK7_mUYSOx-35" value="Send Display &amp;amp; Buzzer Commands&amp;nbsp;" style="rounded=0;whiteSpace=wrap;html=1;" vertex="1" parent="1">
          <mxGeometry x="150" y="730" width="200" height="20" as="geometry" />
        </mxCell>
        <mxCell id="GVKvwJbg8GZK7_mUYSOx-37" value="Update Display Only" style="rounded=0;whiteSpace=wrap;html=1;" vertex="1" parent="1">
          <mxGeometry x="480" y="730" width="170" height="20" as="geometry" />
        </mxCell>
        <mxCell id="GVKvwJbg8GZK7_mUYSOx-38" value="" style="endArrow=none;html=1;rounded=0;entryX=0.5;entryY=0;entryDx=0;entryDy=0;" edge="1" parent="1" target="GVKvwJbg8GZK7_mUYSOx-37">
          <mxGeometry width="50" height="50" relative="1" as="geometry">
            <mxPoint x="564.8" y="710" as="sourcePoint" />
            <mxPoint x="564.8" y="729" as="targetPoint" />
          </mxGeometry>
        </mxCell>
        <mxCell id="GVKvwJbg8GZK7_mUYSOx-39" value="" style="endArrow=none;html=1;rounded=0;" edge="1" parent="1">
          <mxGeometry width="50" height="50" relative="1" as="geometry">
            <mxPoint x="240" y="790" as="sourcePoint" />
            <mxPoint x="240" y="750" as="targetPoint" />
          </mxGeometry>
        </mxCell>
        <mxCell id="GVKvwJbg8GZK7_mUYSOx-41" value="" style="endArrow=none;html=1;rounded=0;entryX=0.5;entryY=1;entryDx=0;entryDy=0;" edge="1" parent="1" target="GVKvwJbg8GZK7_mUYSOx-37">
          <mxGeometry width="50" height="50" relative="1" as="geometry">
            <mxPoint x="565" y="790" as="sourcePoint" />
            <mxPoint x="600" y="730" as="targetPoint" />
          </mxGeometry>
        </mxCell>
        <mxCell id="GVKvwJbg8GZK7_mUYSOx-42" value="Touch Detected" style="rhombus;whiteSpace=wrap;html=1;" vertex="1" parent="1">
          <mxGeometry x="342.5" y="810" width="115" height="90" as="geometry" />
        </mxCell>
        <mxCell id="GVKvwJbg8GZK7_mUYSOx-43" value="Generate Touch Response" style="rounded=0;whiteSpace=wrap;html=1;" vertex="1" parent="1">
          <mxGeometry x="220" y="910" width="160" height="20" as="geometry" />
        </mxCell>
        <mxCell id="GVKvwJbg8GZK7_mUYSOx-46" value="" style="endArrow=classic;html=1;rounded=0;exitX=0;exitY=0.5;exitDx=0;exitDy=0;entryX=0.5;entryY=0;entryDx=0;entryDy=0;" edge="1" parent="1" source="GVKvwJbg8GZK7_mUYSOx-42" target="GVKvwJbg8GZK7_mUYSOx-43">
          <mxGeometry width="50" height="50" relative="1" as="geometry">
            <mxPoint x="350" y="960" as="sourcePoint" />
            <mxPoint x="400" y="910" as="targetPoint" />
            <Array as="points">
              <mxPoint x="300" y="855" />
            </Array>
          </mxGeometry>
        </mxCell>
        <mxCell id="GVKvwJbg8GZK7_mUYSOx-47" value="" style="endArrow=classic;html=1;rounded=0;exitX=1;exitY=0.5;exitDx=0;exitDy=0;" edge="1" parent="1" source="GVKvwJbg8GZK7_mUYSOx-42">
          <mxGeometry width="50" height="50" relative="1" as="geometry">
            <mxPoint x="353" y="865" as="sourcePoint" />
            <mxPoint x="510" y="960" as="targetPoint" />
            <Array as="points">
              <mxPoint x="510" y="855" />
            </Array>
          </mxGeometry>
        </mxCell>
        <mxCell id="GVKvwJbg8GZK7_mUYSOx-48" value="" style="endArrow=none;html=1;rounded=0;exitX=0.5;exitY=1;exitDx=0;exitDy=0;" edge="1" parent="1" source="GVKvwJbg8GZK7_mUYSOx-43">
          <mxGeometry width="50" height="50" relative="1" as="geometry">
            <mxPoint x="350" y="960" as="sourcePoint" />
            <mxPoint x="300" y="960" as="targetPoint" />
          </mxGeometry>
        </mxCell>
        <mxCell id="GVKvwJbg8GZK7_mUYSOx-50" value="" style="endArrow=none;html=1;rounded=0;" edge="1" parent="1">
          <mxGeometry width="50" height="50" relative="1" as="geometry">
            <mxPoint x="300" y="960" as="sourcePoint" />
            <mxPoint x="510" y="960" as="targetPoint" />
          </mxGeometry>
        </mxCell>
        <mxCell id="GVKvwJbg8GZK7_mUYSOx-51" value="" style="endArrow=classic;html=1;rounded=0;entryX=0.5;entryY=0;entryDx=0;entryDy=0;" edge="1" parent="1">
          <mxGeometry width="50" height="50" relative="1" as="geometry">
            <mxPoint x="400" y="960" as="sourcePoint" />
            <mxPoint x="400" y="980" as="targetPoint" />
          </mxGeometry>
        </mxCell>
        <mxCell id="GVKvwJbg8GZK7_mUYSOx-52" value="Yes" style="text;html=1;align=center;verticalAlign=middle;whiteSpace=wrap;rounded=0;" vertex="1" parent="1">
          <mxGeometry x="290" y="830" width="60" height="30" as="geometry" />
        </mxCell>
        <mxCell id="GVKvwJbg8GZK7_mUYSOx-53" value="No" style="text;html=1;align=center;verticalAlign=middle;whiteSpace=wrap;rounded=0;" vertex="1" parent="1">
          <mxGeometry x="457.5" y="830" width="60" height="30" as="geometry" />
        </mxCell>
        <mxCell id="GVKvwJbg8GZK7_mUYSOx-65" value="Remote&amp;nbsp;&lt;div&gt;Command&amp;nbsp;&lt;div&gt;Received&lt;/div&gt;&lt;/div&gt;" style="rhombus;whiteSpace=wrap;html=1;" vertex="1" parent="1">
          <mxGeometry x="342.5" y="980" width="115" height="90" as="geometry" />
        </mxCell>
        <mxCell id="GVKvwJbg8GZK7_mUYSOx-66" value="Process Remote Command" style="rounded=0;whiteSpace=wrap;html=1;" vertex="1" parent="1">
          <mxGeometry x="220" y="1080" width="160" height="20" as="geometry" />
        </mxCell>
        <mxCell id="GVKvwJbg8GZK7_mUYSOx-68" value="Send Status Update to wifi" style="rounded=0;whiteSpace=wrap;html=1;" vertex="1" parent="1">
          <mxGeometry x="320" y="1150" width="160" height="20" as="geometry" />
        </mxCell>
        <mxCell id="GVKvwJbg8GZK7_mUYSOx-69" value="" style="endArrow=classic;html=1;rounded=0;exitX=0;exitY=0.5;exitDx=0;exitDy=0;entryX=0.5;entryY=0;entryDx=0;entryDy=0;" edge="1" parent="1" source="GVKvwJbg8GZK7_mUYSOx-65" target="GVKvwJbg8GZK7_mUYSOx-66">
          <mxGeometry width="50" height="50" relative="1" as="geometry">
            <mxPoint x="350" y="1130" as="sourcePoint" />
            <mxPoint x="400" y="1080" as="targetPoint" />
            <Array as="points">
              <mxPoint x="300" y="1025" />
            </Array>
          </mxGeometry>
        </mxCell>
        <mxCell id="GVKvwJbg8GZK7_mUYSOx-70" value="" style="endArrow=classic;html=1;rounded=0;exitX=1;exitY=0.5;exitDx=0;exitDy=0;" edge="1" parent="1" source="GVKvwJbg8GZK7_mUYSOx-65">
          <mxGeometry width="50" height="50" relative="1" as="geometry">
            <mxPoint x="353" y="1035" as="sourcePoint" />
            <mxPoint x="510" y="1130" as="targetPoint" />
            <Array as="points">
              <mxPoint x="510" y="1025" />
            </Array>
          </mxGeometry>
        </mxCell>
        <mxCell id="GVKvwJbg8GZK7_mUYSOx-71" value="" style="endArrow=none;html=1;rounded=0;exitX=0.5;exitY=1;exitDx=0;exitDy=0;" edge="1" parent="1" source="GVKvwJbg8GZK7_mUYSOx-66">
          <mxGeometry width="50" height="50" relative="1" as="geometry">
            <mxPoint x="350" y="1130" as="sourcePoint" />
            <mxPoint x="300" y="1130" as="targetPoint" />
          </mxGeometry>
        </mxCell>
        <mxCell id="GVKvwJbg8GZK7_mUYSOx-73" value="" style="endArrow=none;html=1;rounded=0;" edge="1" parent="1">
          <mxGeometry width="50" height="50" relative="1" as="geometry">
            <mxPoint x="300" y="1130" as="sourcePoint" />
            <mxPoint x="510" y="1130" as="targetPoint" />
          </mxGeometry>
        </mxCell>
        <mxCell id="GVKvwJbg8GZK7_mUYSOx-74" value="" style="endArrow=classic;html=1;rounded=0;entryX=0.5;entryY=0;entryDx=0;entryDy=0;" edge="1" parent="1" target="GVKvwJbg8GZK7_mUYSOx-68">
          <mxGeometry width="50" height="50" relative="1" as="geometry">
            <mxPoint x="400" y="1130" as="sourcePoint" />
            <mxPoint x="400" y="1080" as="targetPoint" />
          </mxGeometry>
        </mxCell>
        <mxCell id="GVKvwJbg8GZK7_mUYSOx-75" value="Yes" style="text;html=1;align=center;verticalAlign=middle;whiteSpace=wrap;rounded=0;" vertex="1" parent="1">
          <mxGeometry x="290" y="1000" width="60" height="30" as="geometry" />
        </mxCell>
        <mxCell id="GVKvwJbg8GZK7_mUYSOx-76" value="No" style="text;html=1;align=center;verticalAlign=middle;whiteSpace=wrap;rounded=0;" vertex="1" parent="1">
          <mxGeometry x="457.5" y="1000" width="60" height="30" as="geometry" />
        </mxCell>
        <mxCell id="GVKvwJbg8GZK7_mUYSOx-78" value="" style="endArrow=none;html=1;rounded=0;exitX=1;exitY=0.5;exitDx=0;exitDy=0;" edge="1" parent="1" source="GVKvwJbg8GZK7_mUYSOx-68">
          <mxGeometry width="50" height="50" relative="1" as="geometry">
            <mxPoint x="460" y="1170" as="sourcePoint" />
            <mxPoint x="760" y="1160" as="targetPoint" />
          </mxGeometry>
        </mxCell>
        <mxCell id="GVKvwJbg8GZK7_mUYSOx-79" value="" style="endArrow=none;html=1;rounded=0;" edge="1" parent="1">
          <mxGeometry width="50" height="50" relative="1" as="geometry">
            <mxPoint x="760" y="1160" as="sourcePoint" />
            <mxPoint x="760" y="240" as="targetPoint" />
          </mxGeometry>
        </mxCell>
        <mxCell id="GVKvwJbg8GZK7_mUYSOx-80" value="" style="endArrow=classic;html=1;rounded=0;entryX=1;entryY=0.5;entryDx=0;entryDy=0;" edge="1" parent="1" target="GVKvwJbg8GZK7_mUYSOx-5">
          <mxGeometry width="50" height="50" relative="1" as="geometry">
            <mxPoint x="760" y="240" as="sourcePoint" />
            <mxPoint x="430" y="300" as="targetPoint" />
          </mxGeometry>
        </mxCell>
        <mxCell id="GVKvwJbg8GZK7_mUYSOx-81" value="Wait for Next Cycle" style="text;html=1;align=center;verticalAlign=middle;whiteSpace=wrap;rounded=0;" vertex="1" parent="1">
          <mxGeometry x="690" y="620" width="150" height="30" as="geometry" />
        </mxCell>
        <mxCell id="GVKvwJbg8GZK7_mUYSOx-82" value="" style="endArrow=classic;html=1;rounded=0;exitX=0.5;exitY=1;exitDx=0;exitDy=0;entryX=0.5;entryY=0;entryDx=0;entryDy=0;" edge="1" parent="1" source="GVKvwJbg8GZK7_mUYSOx-1" target="GVKvwJbg8GZK7_mUYSOx-2">
          <mxGeometry width="50" height="50" relative="1" as="geometry">
            <mxPoint x="310" y="190" as="sourcePoint" />
            <mxPoint x="360" y="140" as="targetPoint" />
          </mxGeometry>
        </mxCell>
        <mxCell id="GVKvwJbg8GZK7_mUYSOx-83" value="" style="endArrow=classic;html=1;rounded=0;exitX=0.5;exitY=1;exitDx=0;exitDy=0;" edge="1" parent="1" source="GVKvwJbg8GZK7_mUYSOx-2" target="GVKvwJbg8GZK7_mUYSOx-3">
          <mxGeometry width="50" height="50" relative="1" as="geometry">
            <mxPoint x="410" y="60" as="sourcePoint" />
            <mxPoint x="410" y="90" as="targetPoint" />
          </mxGeometry>
        </mxCell>
        <mxCell id="GVKvwJbg8GZK7_mUYSOx-84" value="" style="endArrow=classic;html=1;rounded=0;exitX=0.5;exitY=1;exitDx=0;exitDy=0;entryX=0.5;entryY=0;entryDx=0;entryDy=0;" edge="1" parent="1" source="GVKvwJbg8GZK7_mUYSOx-3" target="GVKvwJbg8GZK7_mUYSOx-4">
          <mxGeometry width="50" height="50" relative="1" as="geometry">
            <mxPoint x="410" y="110" as="sourcePoint" />
            <mxPoint x="410" y="140" as="targetPoint" />
          </mxGeometry>
        </mxCell>
        <mxCell id="GVKvwJbg8GZK7_mUYSOx-85" value="" style="endArrow=classic;html=1;rounded=0;exitX=0.5;exitY=1;exitDx=0;exitDy=0;entryX=0.5;entryY=0;entryDx=0;entryDy=0;" edge="1" parent="1" source="GVKvwJbg8GZK7_mUYSOx-4" target="GVKvwJbg8GZK7_mUYSOx-5">
          <mxGeometry width="50" height="50" relative="1" as="geometry">
            <mxPoint x="410" y="160" as="sourcePoint" />
            <mxPoint x="410" y="190" as="targetPoint" />
          </mxGeometry>
        </mxCell>
        <mxCell id="GVKvwJbg8GZK7_mUYSOx-86" value="" style="endArrow=classic;html=1;rounded=0;exitX=0.5;exitY=1;exitDx=0;exitDy=0;entryX=0.5;entryY=0;entryDx=0;entryDy=0;" edge="1" parent="1" source="GVKvwJbg8GZK7_mUYSOx-5" target="GVKvwJbg8GZK7_mUYSOx-6">
          <mxGeometry width="50" height="50" relative="1" as="geometry">
            <mxPoint x="410" y="210" as="sourcePoint" />
            <mxPoint x="410" y="240" as="targetPoint" />
          </mxGeometry>
        </mxCell>
        <mxCell id="GVKvwJbg8GZK7_mUYSOx-87" value="" style="endArrow=classic;html=1;rounded=0;exitX=0.5;exitY=1;exitDx=0;exitDy=0;entryX=0.5;entryY=0;entryDx=0;entryDy=0;" edge="1" parent="1" source="GVKvwJbg8GZK7_mUYSOx-6" target="GVKvwJbg8GZK7_mUYSOx-7">
          <mxGeometry width="50" height="50" relative="1" as="geometry">
            <mxPoint x="410" y="260" as="sourcePoint" />
            <mxPoint x="410" y="290" as="targetPoint" />
          </mxGeometry>
        </mxCell>
        <mxCell id="GVKvwJbg8GZK7_mUYSOx-88" value="" style="endArrow=classic;html=1;rounded=0;entryX=0.5;entryY=0;entryDx=0;entryDy=0;exitX=0.5;exitY=1;exitDx=0;exitDy=0;" edge="1" parent="1" source="GVKvwJbg8GZK7_mUYSOx-10" target="GVKvwJbg8GZK7_mUYSOx-20">
          <mxGeometry width="50" height="50" relative="1" as="geometry">
            <mxPoint x="410" y="490" as="sourcePoint" />
            <mxPoint x="410" y="510" as="targetPoint" />
          </mxGeometry>
        </mxCell>
      </root>
    </mxGraphModel>
  </diagram>
</mxfile>
